PathFileType	4	(X/Y/Z)	C:/Users/beibeiliu/ov580/test_trc\sequence.39_training_dense_right.trc
DataRate	CameraRate	NumFrames	NumMarkers	Units	OrigDataRate	OrigDataStartFrame	OrigNumFrames
120	120	10	19	mm	120	201	400
Frame#	Time	ThumbCMC			ThumbMCP			ThumbIP			ThumbTip			IndexMCP			IndexPIP			IndexTip			MiddleMCP			MiddlePIP			MiddleTip			RingMCP			RingPIP			RingTip			PinkyMCP			PinkyPIP			PinkyTip			BackHand1			BackHand2			BackHand3	
		X0	Y0	Z0	X1	Y1	Z1	X2	Y2	Z2	X3	Y3	Z3	X4	Y4	Z4	X5	Y5	Z5	X6	Y6	Z6	X7	Y7	Z7	X8	Y8	Z8	X9	Y9	Z9	X10	Y10	Z10	X11	Y11	Z11	X12	Y12	Z12	X13	Y13	Z13	X14	Y14	Z14	X15	Y15	Z15	X16	Y16	Z16	X17	Y17	Z17	X18	Y18	Z18	
200	1.66667	271.565	-4.56568	87.9786	289.315	-2.26791	66.6448	291.838	-8.08211	39.8041	286.857	-6.32186	18.2945	275.259	-30.1014	25.0174	275.802	-11.1898	2.15799	274.206	13.4628	16.3312	254.727	-26.8237	13.4154	256.967	-3.8214	-2.01026	255.09	18.3262	23.4081	236.794	-23.1459	16.7857	241.938	2.2604	5.35206	244.116	19.2314	29.2191	218.448	-19.6085	26.0826	230.7	0.395731	10.7213	239.019	19.2925	24.0843	233.697	-32.1785	66.716	225.216	-23.9771	94.6902	254.713	-29.752	82.7339	
201	1.675	273.424	-5.38359	91.3752	291.656	-6.23741	64.3157	292.688	-8.38085	43.6045	285.451	-7.10031	19.1077	275.158	-31.4854	25.9603	274.946	-12.7513	1.71238	275.864	12.5624	14.937	253.497	-28.2902	14.8822	261.795	-5.41167	-2.78128	258.36	18.7167	23.4542	235.147	-24.0502	19.1268	240.191	-1.6875	2.93032	248.883	17.9602	23.9779	219.644	-19.1957	27.6445	227.204	-2.46966	9.23163	238.739	18.181	23.1131	227.773	-31.0952	65.2922	228.375	-26.1269	92.3541	256.616	-27.6629	84.9263	
202	1.68333	272.608	-8.27507	88.0187	290.499	-6.93473	66.1324	292.406	-11.0491	40.3913	280.716	-9.40673	20.3885	276.041	-33.8959	22.2152	275.555	-14.7396	1.88476	274.494	11.7188	14.3083	256.825	-30.3305	17.6411	258.759	-6.29331	-3.50731	261.246	16.2653	17.2475	239.256	-25.8103	17.1974	243.205	-1.42605	2.8012	247.789	17.0838	20.1221	218.853	-19.7463	25.1197	230.326	-3.73765	9.39854	238.705	18.6626	20.4857	228.154	-32.788	68.4028	224.54	-24.9084	90.4183	254.105	-30.0069	83.2693	
203	1.69167	275.991	-11.3201	88.0803	293.375	-9.86189	66.5564	290.884	-13.1461	41.0403	282.029	-10.5857	18.5795	274.192	-35.3943	21.6339	277.361	-18.6044	0.990979	278.116	11.1478	15.0386	255.025	-31.6902	12.6336	259.114	-8.76438	-3.15614	257.748	15.9925	18.7134	235.454	-26.6892	16.8218	244.517	-2.34751	2.25714	246.806	17.1686	21.8515	221.768	-21.1957	22.5892	231.785	-3.35091	10.21	239.788	15.5016	19.1384	228.787	-33.8233	66.74	222.114	-25.5885	94.0352	254.642	-34.166	82.1601	
204	1.7	272.383	-10.2983	90.2339	289.497	-11.6306	66.6657	293.725	-15.0029	42.4784	285.701	-11.3445	21.2996	270.125	-37.9838	21.4366	276.384	-19.4645	1.19481	274.068	9.12424	14.3735	252.619	-32.6668	13.8291	255.826	-9.7179	-3.00949	260.755	14.9931	18.1723	237.504	-28.1891	14.6798	241.734	-2.84657	2.07402	250.293	14.9513	21.6277	220.643	-22.4489	25.5159	227.43	-3.62744	9.13344	240.16	13.7843	18.4784	227.936	-32.1947	66.8296	223.99	-27.0186	91.2168	253.161	-33.3308	82.9875	
205	1.70833	272.368	-11.9592	88.8446	293.671	-11.7161	69.3904	294.781	-14.6913	44.5269	285.279	-13.1173	22.0968	269.939	-38.4334	22.1349	274.994	-20.1137	1.72559	275.951	4.06129	10.2832	251.513	-33.8588	17.7317	256.012	-12.0599	-2.05543	257.785	14.527	21.9345	234.222	-29.3091	14.9081	243.443	-8.22631	2.80379	250.199	11.9025	20.5216	221.036	-23.5523	28.9304	228.551	-8.01832	9.05213	241.522	13.2731	18.6739	224.941	-35.5515	66.5058	226.36	-27.946	94.3508	251.324	-35.6737	82.8434	
206	1.71667	272.392	-13.5443	88.5659	291.122	-11.802	65.7194	295.232	-14.652	40.8297	288.3	-12.7365	19.9422	268.868	-39.8675	23.443	274.297	-23.2904	3.13442	274.217	4.82241	13.4952	251.664	-36.1783	18.8315	254.717	-13.304	-2.51766	258.916	12.2438	20.3392	233.747	-30.431	19.7181	242.12	-5.08295	3.8258	246.612	14.321	24.5779	219.822	-24.6021	28.257	230.941	-8.78681	9.59952	240.013	10.8858	17.4508	229.168	-35.982	67.8597	223.521	-28.3474	90.94	250.337	-34.6128	82.016	
207	1.725	271.62	-11.5293	90.102	287.64	-11.284	64.8485	296.052	-14.2392	41.1053	291.007	-12.1214	19.9958	271.805	-40.5839	23.9311	272.721	-22.7321	2.72657	274.504	2.43217	14.1652	253.429	-35.4501	14.3146	255.452	-14.3919	-1.86123	260.065	10.9397	22.1379	234.213	-30.5175	20.8361	242.38	-4.71917	5.12327	246.82	12.1323	22.1769	220.066	-25.1736	29.4848	226.523	-7.40004	9.03253	239.976	10.0477	17.7692	228.161	-37.3631	68.8543	221.537	-28.8913	95.5073	250.682	-35.8647	86.0222	
208	1.73333	272.876	-12.2109	88.4523	289.837	-9.4203	66.0314	293.743	-14.7241	40.6446	290.725	-15.2074	16.2055	273.281	-41.0591	26.0505	276.48	-25.0621	3.90372	275.01	5.56275	20.2286	255.457	-36.0172	15.3471	255.077	-13.0071	-1.37022	257.001	10.3273	22.2733	237.434	-31.6882	20.0528	243.587	-11.1035	5.47501	246.941	11.2711	24.0644	221.401	-25.7364	24.3666	224.912	-10.2107	9.43853	239.708	9.31017	17.9848	230.025	-36.2806	68.5483	225.158	-31.1912	92.5549	251.226	-37.1929	81.6133	
209	1.74167	274.513	-11.4661	89.4845	288.445	-10.5216	63.651	292.821	-13.9103	42.4373	290.936	-15.2362	16.7875	273.395	-40.0273	27.9201	274.877	-20.9873	5.32071	273.876	3.6793	19.1454	253.033	-35.3223	18.2552	255.415	-10.3249	0.799798	259.887	8.88231	26.8209	237.657	-31.2097	19.0669	242.968	-3.15392	7.4516	245.839	11.8094	31.4815	221.91	-25.8842	25.2376	230.8	-6.85915	10.7197	240.435	10.9671	22.108	226.301	-37.3096	65.981	222.878	-28.9123	92.0537	249.39	-36.0532	82.1215	
